<svg width="342" height="186" viewBox="0 0 342 186" fill="none" xmlns="http://www.w3.org/2000/svg">
<rect width="342" height="186" rx="10" fill="url(#paint0_linear_478_92)"/>
<path opacity="0.15" d="M218.558 54.4834L342 15V176C342 181.523 337.523 186 332 186H290L213.253 69.5097C209.61 63.9801 212.251 56.5007 218.558 54.4834Z" fill="#FCFCFC"/>
<path d="M29.5938 63.2727L33.5959 69.815H33.7266L37.7287 63.2727H40.6527L35.4418 71.6364L40.6854 80H37.745L33.7266 73.5476H33.5959L29.5774 80H26.6371L31.9705 71.6364L26.6697 63.2727H29.5938ZM45.9121 63.2727L49.9142 69.815H50.0449L54.0471 63.2727H56.9711L51.7601 71.6364L57.0037 80H54.0634L50.0449 73.5476H49.9142L45.8958 80H42.9554L48.2889 71.6364L42.9881 63.2727H45.9121ZM62.2305 63.2727L66.2326 69.815H66.3633L70.3654 63.2727H73.2894L68.0785 71.6364L73.3221 80H70.3817L66.3633 73.5476H66.2326L62.2141 80H59.2738L64.6072 71.6364L59.3065 63.2727H62.2305ZM78.5488 63.2727L82.551 69.815H82.6816L86.6838 63.2727H89.6078L84.3968 71.6364L89.6404 80H86.7001L82.6816 73.5476H82.551L78.5325 80H75.5922L80.9256 71.6364L75.6248 63.2727H78.5488ZM98.8469 70.5746V72.6982H91.4307V70.5746H98.8469ZM103.684 63.2727L107.686 69.815H107.816L111.819 63.2727H114.743L109.532 71.6364L114.775 80H111.835L107.816 73.5476H107.686L103.667 80H100.727L106.06 71.6364L100.76 63.2727H103.684ZM120.002 63.2727L124.004 69.815H124.135L128.137 63.2727H131.061L125.85 71.6364L131.094 80H128.153L124.135 73.5476H124.004L119.986 80H117.045L122.379 71.6364L117.078 63.2727H120.002ZM136.32 63.2727L140.322 69.815H140.453L144.455 63.2727H147.379L142.168 71.6364L147.412 80H144.472L140.453 73.5476H140.322L136.304 80H133.364L138.697 71.6364L133.396 63.2727H136.32ZM152.639 63.2727L156.641 69.815H156.771L160.774 63.2727H163.698L158.487 71.6364L163.73 80H160.79L156.771 73.5476H156.641L152.622 80H149.682L155.015 71.6364L149.715 63.2727H152.639ZM172.937 70.5746V72.6982H165.521V70.5746H172.937ZM177.773 63.2727L181.776 69.815H181.906L185.908 63.2727H188.832L183.621 71.6364L188.865 80H185.925L181.906 73.5476H181.776L177.757 80H174.817L180.15 71.6364L174.849 63.2727H177.773ZM194.092 63.2727L198.094 69.815H198.225L202.227 63.2727H205.151L199.94 71.6364L205.183 80H202.243L198.225 73.5476H198.094L194.075 80H191.135L196.469 71.6364L191.168 63.2727H194.092ZM210.41 63.2727L214.412 69.815H214.543L218.545 63.2727H221.469L216.258 71.6364L221.502 80H218.561L214.543 73.5476H214.412L210.394 80H207.453L212.787 71.6364L207.486 63.2727H210.41ZM226.729 63.2727L230.731 69.815H230.861L234.863 63.2727H237.787L232.577 71.6364L237.82 80H234.88L230.861 73.5476H230.731L226.712 80H223.772L229.105 71.6364L223.805 63.2727H226.729ZM247.027 70.5746V72.6982H239.61V70.5746H247.027ZM251.863 63.2727L255.865 69.815H255.996L259.998 63.2727H262.922L257.711 71.6364L262.955 80H260.015L255.996 73.5476H255.865L251.847 80H248.907L254.24 71.6364L248.939 63.2727H251.863ZM268.182 63.2727L272.184 69.815H272.314L276.317 63.2727H279.241L274.03 71.6364L279.273 80H276.333L272.314 73.5476H272.184L268.165 80H265.225L270.558 71.6364L265.258 63.2727H268.182ZM284.5 63.2727L288.502 69.815H288.633L292.635 63.2727H295.559L290.348 71.6364L295.592 80H292.651L288.633 73.5476H288.502L284.484 80H281.543L286.877 71.6364L281.576 63.2727H284.5ZM300.818 63.2727L304.82 69.815H304.951L308.953 63.2727H311.877L306.666 71.6364L311.91 80H308.97L304.951 73.5476H304.82L300.802 80H297.862L303.195 71.6364L297.894 63.2727H300.818Z" fill="#FCFCFC"/>
<path d="M28.1186 116.818H29.983L33.2244 124.733H33.3438L36.5852 116.818H38.4496V127H36.9879V119.632H36.8935L33.8906 126.985H32.6776L29.6747 119.627H29.5803V127H28.1186V116.818ZM41.6831 116.818H43.5474L46.7889 124.733H46.9082L50.1497 116.818H52.014V127H50.5524V119.632H50.4579L47.4551 126.985H46.242L43.2392 119.627H43.1447V127H41.6831V116.818ZM59.006 116.341L55.7248 128.531H54.3974L57.6786 116.341H59.006ZM60.6026 116.818H62.3477L65.0075 121.447H65.1168L67.7766 116.818H69.5217L65.8278 123.003V127H64.2965V123.003L60.6026 116.818ZM71.1866 116.818H72.9316L75.5914 121.447H75.7008L78.3606 116.818H80.1056L76.4118 123.003V127H74.8805V123.003L71.1866 116.818Z" fill="#FCFCFC"/>
<path d="M37.9432 147.148H36.1705C36.1023 146.769 35.9754 146.436 35.7898 146.148C35.6042 145.86 35.3769 145.616 35.108 145.415C34.839 145.214 34.5379 145.062 34.2045 144.96C33.875 144.858 33.5246 144.807 33.1534 144.807C32.483 144.807 31.8826 144.975 31.3523 145.312C30.8258 145.65 30.4091 146.144 30.1023 146.795C29.7992 147.447 29.6477 148.242 29.6477 149.182C29.6477 150.129 29.7992 150.928 30.1023 151.58C30.4091 152.231 30.8277 152.723 31.358 153.057C31.8883 153.39 32.4848 153.557 33.1477 153.557C33.5152 153.557 33.8636 153.508 34.1932 153.409C34.5265 153.307 34.8277 153.157 35.0966 152.96C35.3655 152.763 35.5928 152.523 35.7784 152.239C35.9678 151.951 36.0985 151.621 36.1705 151.25L37.9432 151.256C37.8485 151.828 37.6648 152.354 37.392 152.835C37.1231 153.312 36.7765 153.725 36.3523 154.074C35.9318 154.419 35.4508 154.686 34.9091 154.875C34.3674 155.064 33.7765 155.159 33.1364 155.159C32.1288 155.159 31.2311 154.92 30.4432 154.443C29.6553 153.962 29.0341 153.275 28.5795 152.381C28.1288 151.487 27.9034 150.42 27.9034 149.182C27.9034 147.939 28.1307 146.873 28.5852 145.983C29.0398 145.089 29.661 144.403 30.4489 143.926C31.2367 143.445 32.1326 143.205 33.1364 143.205C33.7538 143.205 34.3295 143.294 34.8636 143.472C35.4015 143.646 35.8845 143.903 36.3125 144.244C36.7405 144.581 37.0947 144.994 37.375 145.483C37.6553 145.968 37.8447 146.523 37.9432 147.148ZM40.9489 155H39.0852L43.2727 143.364H45.3011L49.4886 155H47.625L44.3352 145.477H44.2443L40.9489 155ZM41.2614 150.443H47.3068V151.92H41.2614V150.443ZM51.169 155V143.364H55.3168C56.2183 143.364 56.9664 143.519 57.5611 143.83C58.1596 144.14 58.6065 144.57 58.902 145.119C59.1974 145.665 59.3452 146.295 59.3452 147.011C59.3452 147.723 59.1955 148.35 58.8963 148.892C58.6009 149.43 58.1539 149.848 57.5554 150.148C56.9607 150.447 56.2126 150.597 55.3111 150.597H52.169V149.085H55.152C55.7202 149.085 56.1823 149.004 56.5384 148.841C56.8982 148.678 57.1615 148.441 57.3281 148.131C57.4948 147.82 57.5781 147.447 57.5781 147.011C57.5781 146.572 57.4929 146.191 57.3224 145.869C57.1558 145.547 56.8925 145.301 56.5327 145.131C56.1766 144.956 55.7088 144.869 55.1293 144.869H52.9247V155H51.169ZM56.9134 149.75L59.7884 155H57.7884L54.9702 149.75H56.9134ZM65.2486 155H61.4815V143.364H65.3679C66.508 143.364 67.4872 143.597 68.3054 144.062C69.1236 144.525 69.7505 145.189 70.1861 146.057C70.6255 146.92 70.8452 147.956 70.8452 149.165C70.8452 150.377 70.6236 151.419 70.1804 152.29C69.741 153.161 69.1046 153.831 68.2713 154.301C67.438 154.767 66.4304 155 65.2486 155ZM63.2372 153.466H65.152C66.0384 153.466 66.7751 153.299 67.3622 152.966C67.9493 152.629 68.3887 152.142 68.6804 151.506C68.9721 150.866 69.1179 150.085 69.1179 149.165C69.1179 148.252 68.9721 147.477 68.6804 146.841C68.3925 146.205 67.9626 145.722 67.3906 145.392C66.8187 145.062 66.1084 144.898 65.2599 144.898H63.2372V153.466ZM77.2628 155V143.364H79.0185V148.42H84.8196V143.364H86.581V155H84.8196V149.926H79.0185V155H77.2628ZM99.2457 149.182C99.2457 150.424 99.0185 151.492 98.5639 152.386C98.1094 153.277 97.4863 153.962 96.6946 154.443C95.9067 154.92 95.0109 155.159 94.0071 155.159C92.9995 155.159 92.0999 154.92 91.3082 154.443C90.5204 153.962 89.8991 153.275 89.4446 152.381C88.9901 151.487 88.7628 150.42 88.7628 149.182C88.7628 147.939 88.9901 146.873 89.4446 145.983C89.8991 145.089 90.5204 144.403 91.3082 143.926C92.0999 143.445 92.9995 143.205 94.0071 143.205C95.0109 143.205 95.9067 143.445 96.6946 143.926C97.4863 144.403 98.1094 145.089 98.5639 145.983C99.0185 146.873 99.2457 147.939 99.2457 149.182ZM97.5071 149.182C97.5071 148.235 97.3537 147.437 97.0469 146.79C96.7438 146.138 96.3272 145.646 95.7969 145.312C95.2704 144.975 94.6738 144.807 94.0071 144.807C93.3366 144.807 92.7382 144.975 92.2116 145.312C91.6851 145.646 91.2685 146.138 90.9616 146.79C90.6586 147.437 90.5071 148.235 90.5071 149.182C90.5071 150.129 90.6586 150.928 90.9616 151.58C91.2685 152.227 91.6851 152.72 92.2116 153.057C92.7382 153.39 93.3366 153.557 94.0071 153.557C94.6738 153.557 95.2704 153.39 95.7969 153.057C96.3272 152.72 96.7438 152.227 97.0469 151.58C97.3537 150.928 97.5071 150.129 97.5071 149.182ZM101.435 155V143.364H103.19V153.489H108.463V155H101.435ZM114.233 155H110.466V143.364H114.352C115.492 143.364 116.472 143.597 117.29 144.062C118.108 144.525 118.735 145.189 119.17 146.057C119.61 146.92 119.83 147.956 119.83 149.165C119.83 150.377 119.608 151.419 119.165 152.29C118.725 153.161 118.089 153.831 117.256 154.301C116.422 154.767 115.415 155 114.233 155ZM112.222 153.466H114.136C115.023 153.466 115.759 153.299 116.347 152.966C116.934 152.629 117.373 152.142 117.665 151.506C117.956 150.866 118.102 150.085 118.102 149.165C118.102 148.252 117.956 147.477 117.665 146.841C117.377 146.205 116.947 145.722 116.375 145.392C115.803 145.062 115.093 144.898 114.244 144.898H112.222V153.466ZM122.013 155V143.364H129.308V144.875H123.768V148.42H128.928V149.926H123.768V153.489H129.376V155H122.013ZM131.653 155V143.364H135.801C136.703 143.364 137.451 143.519 138.045 143.83C138.644 144.14 139.091 144.57 139.386 145.119C139.682 145.665 139.83 146.295 139.83 147.011C139.83 147.723 139.68 148.35 139.381 148.892C139.085 149.43 138.638 149.848 138.04 150.148C137.445 150.447 136.697 150.597 135.795 150.597H132.653V149.085H135.636C136.205 149.085 136.667 149.004 137.023 148.841C137.383 148.678 137.646 148.441 137.812 148.131C137.979 147.82 138.062 147.447 138.062 147.011C138.062 146.572 137.977 146.191 137.807 145.869C137.64 145.547 137.377 145.301 137.017 145.131C136.661 144.956 136.193 144.869 135.614 144.869H133.409V155H131.653ZM137.398 149.75L140.273 155H138.273L135.455 149.75H137.398ZM155.592 143.364V155H153.979L148.064 146.466H147.956V155H146.2V143.364H147.825L153.746 151.909H153.854V143.364H155.592ZM159.136 155H157.273L161.46 143.364H163.489L167.676 155H165.812L162.523 145.477H162.432L159.136 155ZM159.449 150.443H165.494V151.92H159.449V150.443ZM169.357 143.364H171.487L175.192 152.409H175.328L179.033 143.364H181.163V155H179.493V146.58H179.385L175.953 154.983H174.567L171.135 146.574H171.027V155H169.357V143.364ZM183.716 155V143.364H191.011V144.875H185.472V148.42H190.631V149.926H185.472V153.489H191.08V155H183.716Z" fill="#FCFCFC"/>
<path fill-rule="evenodd" clip-rule="evenodd" d="M268.75 125C266.679 125 265 126.679 265 128.75V148.25C265 150.321 266.679 152 268.75 152H303C305.071 152 306.75 150.321 306.75 148.25V128.75C306.75 126.679 305.071 125 303 125H268.75ZM262 128.75C262 125.022 265.022 122 268.75 122H303C306.728 122 309.75 125.022 309.75 128.75V148.25C309.75 151.978 306.728 155 303 155H268.75C265.022 155 262 151.978 262 148.25V128.75Z" fill="#FCFCFC"/>
<path fill-rule="evenodd" clip-rule="evenodd" d="M307 135.312H263.5V129.688L307 129.687V135.312ZM268.188 142.625C268.188 141.072 269.447 139.812 271 139.812H275.5C277.053 139.812 278.312 141.072 278.312 142.625V144.5C278.312 146.053 277.053 147.312 275.5 147.312H271C269.447 147.312 268.188 146.053 268.188 144.5V142.625Z" fill="#FCFCFC"/>
<defs>
<linearGradient id="paint0_linear_478_92" x1="-77.6077" y1="-60.9527" x2="-84.3679" y2="173.717" gradientUnits="userSpaceOnUse">
<stop stop-color="#85A6FA"/>
<stop offset="1" stop-color="#1AAEEA"/>
</linearGradient>
</defs>
</svg>
