<svg width="108" height="128" viewBox="0 0 108 128" fill="none" xmlns="http://www.w3.org/2000/svg">
<g id="Group 7302">
<g id="Group 7301">
<path id="XMLID_6_" d="M91.3831 71.7548H81.0213V37.488C81.0213 22.5313 68.8541 10.3641 53.8975 10.3641C38.9408 10.3641 26.7713 22.5313 26.7713 37.488V71.7548H16.4095V37.488C16.4095 16.8178 33.225 0 53.8951 0C74.5653 0 91.3831 16.8178 91.3831 37.488V71.7548Z" fill="#49536A"/>
<path id="XMLID_4_" d="M107.247 123.617C107.247 125.836 105.449 127.636 103.228 127.636H4.56484C2.34397 127.636 0.545456 125.838 0.545456 123.617V59.511C0.545456 57.2925 2.34397 55.4916 4.56484 55.4916H103.23C105.449 55.4916 107.249 57.2902 107.249 59.511V123.617H107.247Z" fill="url(#paint0_linear_66_774)"/>
<path id="Vector" d="M107.247 123.617V84.3398C74.7416 111.84 27.8735 122.174 1.31358 125.965C2.04459 126.975 3.22349 127.636 4.56251 127.636H103.228C105.449 127.636 107.247 125.838 107.247 123.617Z" fill="#0DA7E0"/>
<path id="Vector_2" d="M62.7137 80.701C62.7137 75.8322 58.7662 71.8825 53.8951 71.8825C49.0264 71.8825 45.0766 75.8299 45.0766 80.701C45.0766 83.6041 46.4853 86.1708 48.6504 87.779L45.8448 107.718H61.9432L59.1375 87.779C61.305 86.1708 62.7137 83.6041 62.7137 80.701Z" fill="#FCFCFC"/>
<path id="Vector_3" d="M3.91042 63.0965V76.9021C4.27476 71.0401 7.09668 58.2834 24.7407 58.2834H8.72347C6.07559 58.2834 3.91042 60.4486 3.91042 63.0965Z" fill="#FCFCFC"/>
<path id="Vector_4" opacity="0.2" d="M45.8471 107.716C45.8471 107.716 57.7962 104.339 59.1398 87.7767L61.9455 107.716H45.8471Z" fill="#49536A"/>
</g>
</g>
<defs>
<linearGradient id="paint0_linear_66_774" x1="-44.096" y1="9.31902" x2="-49.4999" y2="119.982" gradientUnits="userSpaceOnUse">
<stop stop-color="#85C2FA"/>
<stop offset="1" stop-color="#25B2EB"/>
</linearGradient>
</defs>
</svg>
