<svg width="119" height="128" viewBox="0 0 119 128" fill="none" xmlns="http://www.w3.org/2000/svg">
<g id="Group 7304">
<g id="Group 7301">
<path id="XMLID_6_" d="M90.8376 71.7548H80.4759V37.488C80.4759 22.5313 68.3086 10.3641 53.352 10.3641C38.3953 10.3641 26.2258 22.5313 26.2258 37.488V71.7548H15.864V37.488C15.864 16.8178 32.6795 0 53.3497 0C74.0198 0 90.8376 16.8178 90.8376 37.488V71.7548Z" fill="#49536A"/>
<path id="XMLID_4_" d="M106.702 123.617C106.702 125.836 104.903 127.636 102.682 127.636H4.01938C1.79851 127.636 0 125.838 0 123.617V59.511C0 57.2925 1.79851 55.4916 4.01938 55.4916H102.685C104.903 55.4916 106.704 57.2902 106.704 59.511V123.617H106.702Z" fill="url(#paint0_linear_70_879)"/>
<path id="Vector" d="M106.702 123.617V84.3398C74.1962 111.84 27.3281 122.174 0.768127 125.965C1.49914 126.975 2.67803 127.636 4.01705 127.636H102.682C104.903 127.636 106.702 125.838 106.702 123.617Z" fill="url(#paint1_linear_70_879)"/>
<path id="Vector_2" d="M3.36499 63.0965V76.9021C3.72933 71.0401 6.55126 58.2834 24.1952 58.2834H8.17804C5.53017 58.2834 3.36499 60.4486 3.36499 63.0965Z" fill="#FCFCFC"/>
</g>
<g id="Group 7305">
<rect id="Rectangle 126" x="25.8593" y="72" width="92.3972" height="38.3536" rx="4" fill="#0DA7E0"/>
<g id="****">
<path id="Vector_3" d="M99.0488 102.483L99.3563 94.0279L92.2078 98.563L90.363 95.3346L97.8958 91.4145L90.363 87.4944L92.2078 84.266L99.3563 88.8011L99.0488 80.3459H102.738L102.431 88.8011L109.579 84.266L111.424 87.4944L103.891 91.4145L111.424 95.3346L109.579 98.563L102.431 94.0279L102.738 102.483H99.0488Z" fill="#F5F5F5"/>
<path id="Vector_4" d="M70.2836 102.483L70.5911 94.0279L63.4426 98.563L61.5978 95.3346L69.1306 91.4145L61.5978 87.4944L63.4426 84.266L70.5911 88.8011L70.2836 80.3459H73.9731L73.6657 88.8011L80.8141 84.266L82.6589 87.4944L75.1261 91.4145L82.6589 95.3346L80.8141 98.563L73.6657 94.0279L73.9731 102.483H70.2836Z" fill="#F5F5F5"/>
<path id="Vector_5" d="M41.5184 102.483L41.8259 94.0279L34.6774 98.563L32.8326 95.3346L40.3654 91.4145L32.8326 87.4944L34.6774 84.266L41.8259 88.8011L41.5184 80.3459H45.2079L44.9005 88.8011L52.0489 84.266L53.8937 87.4944L46.3609 91.4145L53.8937 95.3346L52.0489 98.563L44.9005 94.0279L45.2079 102.483H41.5184Z" fill="#F5F5F5"/>
</g>
</g>
</g>
<defs>
<linearGradient id="paint0_linear_70_879" x1="-44.6415" y1="9.31902" x2="-50.0454" y2="119.982" gradientUnits="userSpaceOnUse">
<stop stop-color="#85C2FA"/>
<stop offset="1" stop-color="#25B2EB"/>
</linearGradient>
<linearGradient id="paint1_linear_70_879" x1="-43.551" y1="56.63" x2="-45.5144" y2="123.143" gradientUnits="userSpaceOnUse">
<stop stop-color="#85C2FA"/>
<stop offset="1" stop-color="#25B2EB"/>
</linearGradient>
</defs>
</svg>
