<svg width="105" height="105" viewBox="0 0 105 105" fill="none" xmlns="http://www.w3.org/2000/svg">
<rect width="105" height="105" rx="10" fill="#5FA9F4"/>
<path d="M52.3943 53.0525L46.917 57.3428L35.8193 46.2487H45.5869L52.3943 53.0525Z" fill="#FCFCFC"/>
<path fill-rule="evenodd" clip-rule="evenodd" d="M43.077 72.6574L43.0769 72.6575L37.3972 66.9778L26.4357 56.0198L26.4461 76.6511H19.0175L19 47.481V46.2487H26.4287L42.8744 62.6909L42.8745 62.691L42.8746 62.6909L48.1284 58.5751L53.6022 54.2882L56.2064 56.8889L56.2168 56.8785L56.2168 56.8786L56.2169 56.8785L57.3968 58.055L57.3968 58.055L75.9964 76.6511H66.2288L52.5618 62.9877L52.5479 62.9981L47.912 67.7283L43.0771 72.6575L43.077 72.6574Z" fill="#FCFCFC"/>
<path d="M85.8932 29L79.0405 35.9888L58.6046 56.8227L54.9846 53.2061L85.792 29.0803L85.8932 29Z" fill="#FCFCFC"/>
</svg>
