<svg width="232" height="76" viewBox="0 0 232 76" fill="none" xmlns="http://www.w3.org/2000/svg">
<path d="M52.5902 38.2614L43.9645 45.018L26.4875 27.5465H41.8699L52.5902 38.2614Z" fill="#0DA7E0"/>
<path fill-rule="evenodd" clip-rule="evenodd" d="M37.5983 53.4403L37.5982 53.4403L11.6989 27.5465H-6.10352e-05V29.4872L0.0274271 75.4254H11.7264L11.7099 42.9344L28.9725 60.1914L28.9725 60.1914L37.9171 69.1361L37.9172 69.1361L45.5314 61.3734L52.8323 53.9241L52.8543 53.9076L74.3773 75.4254H89.7597L60.4685 46.1395L58.6103 44.2868L58.6102 44.2868L58.6101 44.2868L58.5937 44.3032L54.4925 40.2076L45.8723 46.9586L37.5983 53.4403Z" fill="#0DA7E0"/>
<path d="M105.346 0.38269L94.5537 11.3889L62.3706 44.1988L56.6696 38.5033L105.186 0.509136L105.346 0.38269Z" fill="#0DA7E0"/>
<path d="M165.072 31.8841L160.806 52.1539L149.667 31.8841H142.499L135.324 65.8485H142.4L147.117 43.5721L159.959 65.8485H165.028L172.202 31.8841H165.072Z" fill="#0DA7E0"/>
<path fill-rule="evenodd" clip-rule="evenodd" d="M103.828 31.8841H82.5579L81.1571 38.5033L81.1559 38.5033L80.6502 41.0157H88.2754L88.8481 38.5088H99.2652C100.216 38.5088 100.618 38.7122 100.618 39.4104C100.618 39.6085 100.571 39.8485 100.522 40.0945L100.522 40.0946L100.519 40.1141L99.0618 46.7882C98.7099 48.344 98.3581 48.7453 97.1046 48.7453H86.6206L88.2754 41.0212H80.6502L77.4616 56.0407H77.4659L76.9173 58.6301L83.2066 64.9194L85.0813 56.0352H85.0769L85.3122 54.9137H98.9573C103.273 54.9137 105.126 53.006 105.978 48.9927L108.336 37.8051C108.485 36.9529 108.589 36.2492 108.589 35.6005C108.595 33.0881 107.242 31.8841 103.828 31.8841Z" fill="#0DA7E0"/>
<path fill-rule="evenodd" clip-rule="evenodd" d="M119.936 38.5088L118.166 46.5298H130.657L129.502 51.9505H117.011L115.506 59.0699H132.812L131.41 65.843H106.225L111.492 41.0102H111.493L111.992 38.5033L111.999 38.5025L113.4 31.8841H138.59L137.182 38.5088H119.936ZM118.166 46.5298L118.166 46.5298H118.166L118.166 46.5298ZM181.933 39.9601C182.18 38.7562 182.587 38.3548 183.637 38.3548H201.648L203 31.8841H181.878C177.464 31.8841 175.66 33.7918 174.803 37.8051L172.246 49.0642C172.147 49.614 172.092 50.0703 172.092 50.5211C172.092 52.6267 173.296 53.8801 176.007 53.8801H189.399C190.355 53.8801 190.702 54.133 190.702 54.7818C190.702 54.9302 190.702 55.1336 190.652 55.3315L188.294 67.1459C188.041 68.3994 187.541 68.8007 186.337 68.8007H87.088L93.7126 75.4254H188.354C192.67 75.4254 194.523 73.5177 195.375 69.5044L198.684 53.127C198.783 52.6267 198.833 52.1209 198.833 51.7251C198.833 49.57 197.629 48.311 194.869 48.311H181.273C180.471 48.311 180.168 48.1076 180.168 47.5579C180.168 47.3939 180.202 47.2261 180.242 47.0295C180.25 46.9889 180.259 46.947 180.267 46.9036L181.933 39.9601Z" fill="#0DA7E0"/>
<path fill-rule="evenodd" clip-rule="evenodd" d="M204.908 41.0157L199.641 65.8485H224.826L226.227 59.0754H208.921L210.427 51.9505H222.918L224.072 46.5353H211.582L212.786 41.0157H212.769L213.31 38.5033H230.598L232 31.8786H206.815L205.413 38.5033H205.413L204.908 41.0157L204.908 41.0157H204.908Z" fill="#0DA7E0"/>
</svg>
