<svg width="105" height="105" viewBox="0 0 105 105" fill="none" xmlns="http://www.w3.org/2000/svg">
<rect width="105" height="105" rx="10" fill="white"/>
<path d="M51.9344 50.6144L45.0564 56.0752L31.1207 41.9544H43.3862L51.9344 50.6144Z" fill="#0DA7E0"/>
<path fill-rule="evenodd" clip-rule="evenodd" d="M40.2343 75.5679L40.2342 75.568L33.102 68.3387L19.3372 54.3912L19.3504 80.6511H10.0219L10 43.5229V41.9544H19.3285L39.98 62.8824L39.98 62.8824L39.9802 62.8823L46.5776 57.6437L53.4512 52.1873L56.7213 55.4975L56.7344 55.4842L56.7345 55.4843L56.7346 55.4842L58.2163 56.9816L58.2162 56.9817L81.5723 80.6511H69.3068L52.1448 63.2601L52.1273 63.2733L46.3058 69.294L40.2344 75.568L40.2343 75.5679Z" fill="#0DA7E0"/>
<path d="M94.0001 20L85.395 28.8955L59.7329 55.4132L55.1871 50.8099L93.873 20.1022L94.0001 20Z" fill="#0DA7E0"/>
</svg>
