<svg width="239" height="39" viewBox="0 0 239 39" fill="none" xmlns="http://www.w3.org/2000/svg">
<g id="Group 7493">
<g id="EXPENSE">
<path id="Vector" d="M219.092 34.4125V4.95337H238.942V10.0886H225.32V17.1081H237.921V22.2433H225.32V29.2773H239V34.4125H219.092Z" fill="#0DA7E0"/>
<path id="Vector_2" d="M209.341 13.4258C209.225 12.2655 208.732 11.364 207.859 10.7215C206.986 10.079 205.802 9.75778 204.306 9.75778C203.29 9.75778 202.431 9.90163 201.731 10.1893C201.031 10.4674 200.494 10.8558 200.12 11.3544C199.756 11.8531 199.574 12.4189 199.574 13.0518C199.554 13.5792 199.665 14.0395 199.904 14.4327C200.154 14.8259 200.494 15.1663 200.926 15.454C201.357 15.7321 201.856 15.9766 202.422 16.1876C202.987 16.389 203.592 16.5616 204.234 16.7054L206.881 17.3383C208.166 17.626 209.345 18.0096 210.419 18.4891C211.493 18.9686 212.424 19.5583 213.21 20.2583C213.996 20.9584 214.605 21.7831 215.037 22.7325C215.478 23.6818 215.703 24.7702 215.713 25.9977C215.703 27.8005 215.243 29.3636 214.332 30.687C213.43 32.0008 212.126 33.022 210.419 33.7508C208.722 34.4701 206.675 34.8297 204.277 34.8297C201.899 34.8297 199.828 34.4653 198.063 33.7365C196.308 33.0077 194.937 31.9288 193.949 30.5C192.971 29.0616 192.458 27.2827 192.41 25.1634H198.437C198.504 26.1511 198.787 26.9758 199.286 27.6375C199.794 28.2896 200.47 28.7835 201.314 29.1191C202.168 29.4451 203.131 29.6082 204.205 29.6082C205.26 29.6082 206.176 29.4547 206.953 29.1479C207.739 28.841 208.348 28.4143 208.78 27.8677C209.211 27.3211 209.427 26.6929 209.427 25.9833C209.427 25.3216 209.23 24.7654 208.837 24.3147C208.453 23.864 207.888 23.4804 207.14 23.164C206.401 22.8475 205.495 22.5598 204.421 22.3009L201.213 21.4954C198.73 20.8913 196.769 19.9467 195.33 18.6617C193.892 17.3767 193.177 15.6458 193.187 13.4689C193.177 11.6853 193.652 10.127 194.611 8.79404C195.58 7.46109 196.908 6.42062 198.595 5.67264C200.283 4.92465 202.201 4.55066 204.349 4.55066C206.536 4.55066 208.444 4.92465 210.074 5.67264C211.714 6.42062 212.989 7.46109 213.9 8.79404C214.811 10.127 215.281 11.6709 215.31 13.4258H209.341Z" fill="#0DA7E0"/>
<path id="Vector_3" d="M189.024 4.95337V34.4125H183.644L170.827 15.8711H170.612V34.4125H164.383V4.95337H169.849L182.565 23.4804H182.824V4.95337H189.024Z" fill="#0DA7E0"/>
<path id="Vector_4" d="M140.391 34.4125V4.95337H160.242V10.0886H146.62V17.1081H159.22V22.2433H146.62V29.2773H160.299V34.4125H140.391Z" fill="#0DA7E0"/>
<path id="Vector_5" d="M114.975 34.4125V4.95337H126.598C128.832 4.95337 130.736 5.3801 132.308 6.23357C133.881 7.07746 135.08 8.25217 135.905 9.75773C136.739 11.2537 137.156 12.9798 137.156 14.9361C137.156 16.8924 136.734 18.6185 135.89 20.1145C135.046 21.6104 133.824 22.7755 132.222 23.6098C130.63 24.4441 128.703 24.8613 126.44 24.8613H119.032V19.8699H125.433C126.631 19.8699 127.619 19.6637 128.396 19.2514C129.182 18.8295 129.767 18.2493 130.151 17.5109C130.544 16.7629 130.741 15.9046 130.741 14.9361C130.741 13.958 130.544 13.1045 130.151 12.3757C129.767 11.6373 129.182 11.0667 128.396 10.6639C127.61 10.2516 126.612 10.0454 125.404 10.0454H121.204V34.4125H114.975Z" fill="#0DA7E0"/>
<path id="Vector_6" d="M92.6699 4.95337L98.6106 14.9936H98.8408L104.81 4.95337H111.844L102.854 19.6829L112.046 34.4125H104.882L98.8408 24.3578H98.6106L92.5692 34.4125H85.4346L94.6549 19.6829L85.6072 4.95337H92.6699Z" fill="#0DA7E0"/>
<path id="Vector_7" d="M62.8376 34.4125V4.95337H82.688V10.0886H69.0661V17.1081H81.6667V22.2433H69.0661V29.2773H82.7456V34.4125H62.8376Z" fill="#0DA7E0"/>
</g>
<g id="Group">
<path id="Vector_8" d="M9.60583 2.79391L5.9604 16.3911L0 38.5829H7.87625H8.6213C10.1646 38.5829 11.7611 37.3323 12.1603 35.789L14.5551 26.8218L16.0186 21.3137L10.6436 1.09094C10.138 1.5699 9.76548 2.1553 9.60583 2.79391Z" fill="#0DA7E0"/>
<path id="Vector_9" d="M18.9455 0H18.0941H13.1448C12.2401 0 11.3354 0.425743 10.6436 1.09097L16.0452 21.2872L21.7395 0H18.9455Z" fill="#32BCE8"/>
<path id="Vector_10" d="M21.7661 0L16.0452 21.2871L17.5353 26.7952L18.0674 28.8707L20.6751 38.583H20.7549L26.4227 17.4022L21.7661 0Z" fill="#BCDFFF"/>
<path id="Vector_11" d="M31.3719 1.09094C30.8929 1.5699 30.4938 2.1553 30.3341 2.79391L26.6887 16.3911L26.4226 17.4022L30.9461 34.2723L31.8242 37.5452C32.3298 37.0662 32.7289 36.4542 32.9152 35.789L35.31 26.8218L36.7735 21.3137L31.3719 1.09094Z" fill="#0DA7E0"/>
<path id="Vector_12" d="M26.4226 17.4022L20.7549 38.5563H23.4956H24.2407H28.6577H29.4028C30.2809 38.5563 31.159 38.1572 31.8508 37.5186L30.9727 34.2457L26.4226 17.4022Z" fill="#0DA7E0"/>
<path id="Vector_13" d="M39.6738 0H38.8223H33.8731C32.9684 0 32.0637 0.425743 31.3718 1.09097L36.7734 21.2872L42.4678 0H39.6738Z" fill="#32BCE8"/>
<path id="Vector_14" d="M51.6747 34.2723L42.4946 0L36.7737 21.2871L38.2638 26.7952L38.8226 28.8707L41.4036 38.583H44.2242H44.9426H52.8189L51.6747 34.2723Z" fill="#BCDFFF"/>
</g>
</g>
</svg>
