<svg width="18" height="18" viewBox="0 0 18 18" fill="none" xmlns="http://www.w3.org/2000/svg">
<g id="Group" opacity="0.8">
<path id="Vector" d="M1 15C1 13.9391 1.42143 12.9217 2.17157 12.1716C2.92172 11.4214 3.93913 11 5 11H13C14.0609 11 15.0783 11.4214 15.8284 12.1716C16.5786 12.9217 17 13.9391 17 15C17 15.5304 16.7893 16.0391 16.4142 16.4142C16.0391 16.7893 15.5304 17 15 17H3C2.46957 17 1.96086 16.7893 1.58579 16.4142C1.21071 16.0391 1 15.5304 1 15Z" stroke="#49536A" stroke-width="1.7" stroke-linejoin="round"/>
<path id="Vector_2" d="M9.5 8C11.433 8 13 6.433 13 4.5C13 2.567 11.433 1 9.5 1C7.567 1 6 2.567 6 4.5C6 6.433 7.567 8 9.5 8Z" stroke="#49536A" stroke-width="1.7"/>
</g>
</svg>
