<svg width="16" height="15" viewBox="0 0 16 15" fill="none" xmlns="http://www.w3.org/2000/svg">
<g id="Group" opacity="0.7">
<path id="Vector" d="M2.55556 3.33333H3.33333C3.74589 3.33333 4.14155 3.16945 4.43328 2.87772C4.725 2.586 4.88889 2.19034 4.88889 1.77778C4.88889 1.5715 4.97083 1.37367 5.11669 1.22781C5.26256 1.08194 5.46039 1 5.66667 1H10.3333C10.5396 1 10.7374 1.08194 10.8833 1.22781C11.0292 1.37367 11.1111 1.5715 11.1111 1.77778C11.1111 2.19034 11.275 2.586 11.5667 2.87772C11.8584 3.16945 12.2541 3.33333 12.6667 3.33333H13.4444C13.857 3.33333 14.2527 3.49722 14.5444 3.78894C14.8361 4.08067 15 4.47633 15 4.88889V11.8889C15 12.3014 14.8361 12.6971 14.5444 12.9888C14.2527 13.2806 13.857 13.4444 13.4444 13.4444H2.55556C2.143 13.4444 1.74733 13.2806 1.45561 12.9888C1.16389 12.6971 1 12.3014 1 11.8889V4.88889C1 4.47633 1.16389 4.08067 1.45561 3.78894C1.74733 3.49722 2.143 3.33333 2.55556 3.33333Z" stroke="#49536A" stroke-width="1.3" stroke-linecap="round" stroke-linejoin="round"/>
<path id="Vector_2" d="M5.66675 7.99999C5.66675 8.61883 5.91258 9.21232 6.35017 9.64991C6.78775 10.0875 7.38124 10.3333 8.00008 10.3333C8.61892 10.3333 9.21241 10.0875 9.65 9.64991C10.0876 9.21232 10.3334 8.61883 10.3334 7.99999C10.3334 7.38115 10.0876 6.78766 9.65 6.35007C9.21241 5.91249 8.61892 5.66666 8.00008 5.66666C7.38124 5.66666 6.78775 5.91249 6.35017 6.35007C5.91258 6.78766 5.66675 7.38115 5.66675 7.99999Z" stroke="#49536A" stroke-width="1.3" stroke-linecap="round" stroke-linejoin="round"/>
</g>
</svg>
