<svg width="19" height="19" viewBox="0 0 19 19" fill="none" xmlns="http://www.w3.org/2000/svg">
<path d="M13.7616 5H5.95368C5.42698 5 5 5.42714 5 5.95405V9.59162C5 10.1185 5.42698 10.5457 5.95368 10.5457H13.7616C14.2883 10.5457 14.7153 10.1185 14.7153 9.59162V5.95405C14.7153 5.42714 14.2883 5 13.7616 5Z" stroke="#6D7588" stroke-linecap="round" stroke-linejoin="round"/>
<path d="M12 9H13" stroke="#6D7588" stroke-linecap="square" stroke-linejoin="round"/>
<path d="M5.03174 6.53174H14.6685" stroke="#6D7588" stroke-linecap="round" stroke-linejoin="round"/>
<path d="M9.5 18C14.1944 18 18 14.1944 18 9.5C18 4.80558 14.1944 1 9.5 1C4.80558 1 1 4.80558 1 9.5C1 14.1944 4.80558 18 9.5 18Z" stroke="#6D7588" stroke-linecap="round" stroke-linejoin="round"/>
<path d="M13.1101 13.2628C13.5504 13.0842 14.3343 12.8472 14.5701 13.1332C14.8253 13.4427 14.5028 14.1144 14.2058 14.6362" stroke="#6D7588" stroke-linecap="round" stroke-linejoin="round"/>
<path d="M5 13.4697C5.69634 14.0229 7.75322 14.8697 9.94465 14.8697C12.0336 14.8697 13.309 14.1126 13.9705 13.6501" stroke="#6D7588" stroke-linecap="round" stroke-linejoin="round"/>
</svg>
