<svg width="48" height="33" viewBox="0 0 48 33" fill="none" xmlns="http://www.w3.org/2000/svg">
<path fill-rule="evenodd" clip-rule="evenodd" d="M6.75 3C4.67893 3 3 4.67893 3 6.75V26.25C3 28.3211 4.67893 30 6.75 30H41C43.0711 30 44.75 28.3211 44.75 26.25V6.75C44.75 4.67893 43.0711 3 41 3H6.75ZM0 6.75C0 3.02208 3.02208 0 6.75 0H41C44.7279 0 47.75 3.02208 47.75 6.75V26.25C47.75 29.9779 44.7279 33 41 33H6.75C3.02208 33 0 29.9779 0 26.25V6.75Z" fill="#FCFCFC"/>
<path fill-rule="evenodd" clip-rule="evenodd" d="M45 13.3125H1.5V7.6875L45 7.6875V13.3125ZM6.1875 20.625C6.1875 19.0717 7.4467 17.8125 9 17.8125H13.5C15.0533 17.8125 16.3125 19.0717 16.3125 20.625V22.5C16.3125 24.0533 15.0533 25.3125 13.5 25.3125H9C7.4467 25.3125 6.1875 24.0533 6.1875 22.5V20.625Z" fill="#FCFCFC"/>
</svg>
