<svg width="19" height="19" viewBox="0 0 19 19" fill="none" xmlns="http://www.w3.org/2000/svg">
<g opacity="0.6">
<path d="M9.86141 17.61C10.9304 17.6114 11.9891 17.4015 12.9768 16.9924C13.9644 16.5833 14.8614 15.9831 15.6163 15.2262C16.3732 14.4713 16.9735 13.5742 17.3826 12.5866C17.7917 11.599 18.0015 10.5403 18.0002 9.47127C18.0015 8.40228 17.7916 7.34355 17.3825 6.35593C16.9734 5.36832 16.3732 4.47128 15.6163 3.71637C14.8614 2.95947 13.9644 2.35923 12.9768 1.95013C11.9891 1.54103 10.9304 1.33114 9.86141 1.33253C8.79242 1.33116 7.73369 1.54106 6.74607 1.95016C5.75845 2.35926 4.86141 2.95949 4.1065 3.71637C3.34963 4.47128 2.7494 5.36832 2.3403 6.35593C1.9312 7.34355 1.7213 8.40228 1.72266 9.47127C1.72128 10.5403 1.93117 11.599 2.34027 12.5866C2.74937 13.5742 3.34961 14.4713 4.1065 15.2262C4.86141 15.9831 5.75845 16.5833 6.74607 16.9924C7.73369 17.4015 8.79242 17.6114 9.86141 17.61Z" stroke="#49536A" stroke-width="1.5" stroke-linejoin="round"/>
<path d="M6.60632 9.47117L9.04795 11.9128L13.9312 7.02954" stroke="#49536A" stroke-width="1.5" stroke-linecap="round" stroke-linejoin="round"/>
</g>
</svg>
