<svg width="22" height="22" viewBox="0 0 22 22" fill="none" xmlns="http://www.w3.org/2000/svg">
<path opacity="0.95" d="M9 4.41463H13C13 3.89714 12.7893 3.40084 12.4142 3.03491C12.0391 2.66899 11.5304 2.46341 11 2.46341C10.4696 2.46341 9.96086 2.66899 9.58579 3.03491C9.21071 3.40084 9 3.89714 9 4.41463ZM7.5 4.41463C7.5 3.96622 7.59053 3.52219 7.76642 3.10791C7.94231 2.69363 8.20012 2.3172 8.52513 2.00012C8.85013 1.68305 9.23597 1.43153 9.66061 1.25992C10.0852 1.08832 10.5404 1 11 1C11.4596 1 11.9148 1.08832 12.3394 1.25992C12.764 1.43153 13.1499 1.68305 13.4749 2.00012C13.7999 2.3172 14.0577 2.69363 14.2336 3.10791C14.4095 3.52219 14.5 3.96622 14.5 4.41463H20.25C20.4489 4.41463 20.6397 4.49172 20.7803 4.62895C20.921 4.76617 21 4.95228 21 5.14634C21 5.3404 20.921 5.52652 20.7803 5.66374C20.6397 5.80096 20.4489 5.87805 20.25 5.87805H18.93L17.76 17.6937C17.6702 18.599 17.238 19.4393 16.5477 20.0506C15.8573 20.6619 14.9583 21.0003 14.026 21H7.974C7.04186 21.0001 6.1431 20.6615 5.45295 20.0502C4.7628 19.439 4.33073 18.5988 4.241 17.6937L3.07 5.87805H1.75C1.55109 5.87805 1.36032 5.80096 1.21967 5.66374C1.07902 5.52652 1 5.3404 1 5.14634C1 4.95228 1.07902 4.76617 1.21967 4.62895C1.36032 4.49172 1.55109 4.41463 1.75 4.41463H7.5ZM9.5 9.04878C9.5 8.85472 9.42098 8.66861 9.28033 8.53139C9.13968 8.39416 8.94891 8.31707 8.75 8.31707C8.55109 8.31707 8.36032 8.39416 8.21967 8.53139C8.07902 8.66861 8 8.85472 8 9.04878V16.3659C8 16.5599 8.07902 16.746 8.21967 16.8833C8.36032 17.0205 8.55109 17.0976 8.75 17.0976C8.94891 17.0976 9.13968 17.0205 9.28033 16.8833C9.42098 16.746 9.5 16.5599 9.5 16.3659V9.04878ZM13.25 8.31707C13.4489 8.31707 13.6397 8.39416 13.7803 8.53139C13.921 8.66861 14 8.85472 14 9.04878V16.3659C14 16.5599 13.921 16.746 13.7803 16.8833C13.6397 17.0205 13.4489 17.0976 13.25 17.0976C13.0511 17.0976 12.8603 17.0205 12.7197 16.8833C12.579 16.746 12.5 16.5599 12.5 16.3659V9.04878C12.5 8.85472 12.579 8.66861 12.7197 8.53139C12.8603 8.39416 13.0511 8.31707 13.25 8.31707ZM5.734 17.5532C5.78794 18.0962 6.04724 18.6002 6.46137 18.9669C6.87549 19.3336 7.41475 19.5367 7.974 19.5366H14.026C14.5853 19.5367 15.1245 19.3336 15.5386 18.9669C15.9528 18.6002 16.2121 18.0962 16.266 17.5532L17.424 5.87805H4.576L5.734 17.5532Z" fill="#49536A" stroke="#49536A" stroke-width="0.2"/>
</svg>
