<svg width="18" height="17" viewBox="0 0 18 17" fill="none" xmlns="http://www.w3.org/2000/svg">
<path opacity="0.6" d="M7.2 2.90244H10.8C10.8 2.46257 10.6104 2.04071 10.2728 1.72968C9.93523 1.41864 9.47739 1.2439 9 1.2439C8.52261 1.2439 8.06477 1.41864 7.72721 1.72968C7.38964 2.04071 7.2 2.46257 7.2 2.90244ZM5.85 2.90244C5.85 2.52129 5.93148 2.14386 6.08978 1.79172C6.24808 1.43958 6.48011 1.11962 6.77261 0.850105C7.06512 0.580588 7.41237 0.366796 7.79455 0.220935C8.17672 0.0750738 8.58634 0 9 0C9.41366 0 9.82328 0.0750738 10.2055 0.220935C10.5876 0.366796 10.9349 0.580588 11.2274 0.850105C11.5199 1.11962 11.7519 1.43958 11.9102 1.79172C12.0685 2.14386 12.15 2.52129 12.15 2.90244H17.325C17.504 2.90244 17.6757 2.96797 17.8023 3.0846C17.9289 3.20124 18 3.35944 18 3.52439C18 3.68934 17.9289 3.84754 17.8023 3.96418C17.6757 4.08081 17.504 4.14634 17.325 4.14634H16.137L15.084 14.1896C15.0032 14.9592 14.6142 15.6734 13.9929 16.193C13.3716 16.7126 12.5625 17.0003 11.7234 17H6.2766C5.43768 17.0001 4.62879 16.7123 4.00765 16.1927C3.38652 15.6731 2.99766 14.959 2.9169 14.1896L1.863 4.14634H0.675C0.495979 4.14634 0.32429 4.08081 0.197703 3.96418C0.0711158 3.84754 0 3.68934 0 3.52439C0 3.35944 0.0711158 3.20124 0.197703 3.0846C0.32429 2.96797 0.495979 2.90244 0.675 2.90244H5.85ZM7.65 6.84146C7.65 6.67651 7.57888 6.51832 7.4523 6.40168C7.32571 6.28504 7.15402 6.21951 6.975 6.21951C6.79598 6.21951 6.62429 6.28504 6.4977 6.40168C6.37112 6.51832 6.3 6.67651 6.3 6.84146V13.061C6.3 13.2259 6.37112 13.3841 6.4977 13.5008C6.62429 13.6174 6.79598 13.6829 6.975 13.6829C7.15402 13.6829 7.32571 13.6174 7.4523 13.5008C7.57888 13.3841 7.65 13.2259 7.65 13.061V6.84146ZM11.025 6.21951C11.204 6.21951 11.3757 6.28504 11.5023 6.40168C11.6289 6.51832 11.7 6.67651 11.7 6.84146V13.061C11.7 13.2259 11.6289 13.3841 11.5023 13.5008C11.3757 13.6174 11.204 13.6829 11.025 13.6829C10.846 13.6829 10.6743 13.6174 10.5477 13.5008C10.4211 13.3841 10.35 13.2259 10.35 13.061V6.84146C10.35 6.67651 10.4211 6.51832 10.5477 6.40168C10.6743 6.28504 10.846 6.21951 11.025 6.21951ZM4.2606 14.0702C4.30914 14.5318 4.54252 14.9602 4.91523 15.2719C5.28794 15.5836 5.77327 15.7562 6.2766 15.7561H11.7234C12.2267 15.7562 12.7121 15.5836 13.0848 15.2719C13.4575 14.9602 13.6909 14.5318 13.7394 14.0702L14.7816 4.14634H3.2184L4.2606 14.0702Z" fill="#49536A"/>
</svg>
