<svg width="20" height="22" viewBox="0 0 20 22" fill="none" xmlns="http://www.w3.org/2000/svg">
<path d="M14.2092 3.9744L16.4507 6.16522M15.6503 2.04436L9.58635 7.97107C9.27303 8.27687 9.05934 8.66649 8.97223 9.0908L8.41211 11.8311L11.2159 11.2827C11.65 11.1978 12.0481 10.9898 12.3615 10.6835L18.4254 4.75676C18.6077 4.57866 18.7522 4.36723 18.8508 4.13453C18.9494 3.90183 19.0002 3.65243 19.0002 3.40056C19.0002 3.14869 18.9494 2.89929 18.8508 2.66659C18.7522 2.43389 18.6077 2.22246 18.4254 2.04436C18.2432 1.86626 18.0269 1.72499 17.7888 1.6286C17.5507 1.53221 17.2955 1.4826 17.0378 1.4826C16.7801 1.4826 16.525 1.53221 16.2869 1.6286C16.0488 1.72499 15.8325 1.86626 15.6503 2.04436Z" stroke="#FCFCFC" stroke-width="2" stroke-linecap="round" stroke-linejoin="round"/>
<path d="M16.8824 14.9358V18.0404C16.8824 18.5894 16.6593 19.1158 16.2622 19.504C15.865 19.8921 15.3264 20.1102 14.7648 20.1102H3.11766C2.55602 20.1102 2.01738 19.8921 1.62025 19.504C1.22311 19.1158 1 18.5894 1 18.0404V6.65684C1 6.10791 1.22311 5.58146 1.62025 5.19331C2.01738 4.80516 2.55602 4.5871 3.11766 4.5871H6.29414" stroke="#FCFCFC" stroke-width="2" stroke-linecap="round" stroke-linejoin="round"/>
</svg>
