<svg width="17" height="18" viewBox="0 0 17 18" fill="none" xmlns="http://www.w3.org/2000/svg">
<g opacity="0.6">
<path d="M11.7179 3.38199L13.5615 5.1838M12.9031 1.79465L7.91593 6.669C7.65825 6.9205 7.48251 7.24094 7.41086 7.58991L6.9502 9.84367L9.25613 9.39258C9.61316 9.32279 9.94059 9.15171 10.1984 8.89978L15.1855 4.02543C15.3354 3.87895 15.4543 3.70506 15.5354 3.51368C15.6165 3.32231 15.6582 3.11719 15.6582 2.91004C15.6582 2.70289 15.6165 2.49777 15.5354 2.3064C15.4543 2.11502 15.3354 1.94113 15.1855 1.79465C15.0357 1.64818 14.8578 1.53199 14.6619 1.45271C14.4661 1.37344 14.2563 1.33264 14.0443 1.33264C13.8324 1.33264 13.6225 1.37344 13.4267 1.45271C13.2309 1.53199 13.053 1.64818 12.9031 1.79465Z" stroke="#49536A" stroke-width="1.5" stroke-linecap="round" stroke-linejoin="round"/>
<path d="M13.9163 12.3972V14.9505C13.9163 15.402 13.7328 15.8349 13.4062 16.1542C13.0796 16.4734 12.6366 16.6527 12.1747 16.6527H2.59564C2.13373 16.6527 1.69074 16.4734 1.36412 16.1542C1.0375 15.8349 0.854004 15.402 0.854004 14.9505V5.58822C0.854004 5.13676 1.0375 4.70379 1.36412 4.38456C1.69074 4.06533 2.13373 3.88599 2.59564 3.88599H5.2081" stroke="#49536A" stroke-width="1.5" stroke-linecap="round" stroke-linejoin="round"/>
</g>
</svg>
