<svg width="22" height="16" viewBox="0 0 22 16" fill="none" xmlns="http://www.w3.org/2000/svg">
<path opacity="0.8" d="M10.9547 1C4.64767 1 1.58767 6.683 1.04467 7.808C1.01528 7.86774 1 7.93343 1 8C1 8.06657 1.01528 8.13226 1.04467 8.192C1.58667 9.317 4.64667 15 10.9547 15C17.2627 15 20.3217 9.317 20.8647 8.192C20.8941 8.13226 20.9093 8.06657 20.9093 8C20.9093 7.93343 20.8941 7.86774 20.8647 7.808C20.3227 6.683 17.2627 1 10.9547 1Z" stroke="#49536A" stroke-width="1.6" stroke-linecap="round" stroke-linejoin="round"/>
<path opacity="0.8" d="M10.9546 11C12.6114 11 13.9546 9.65685 13.9546 8C13.9546 6.34315 12.6114 5 10.9546 5C9.29774 5 7.95459 6.34315 7.95459 8C7.95459 9.65685 9.29774 11 10.9546 11Z" stroke="#49536A" stroke-width="1.6" stroke-linecap="round" stroke-linejoin="round"/>
</svg>
