<svg width="24" height="24" viewBox="0 0 24 24" fill="none" xmlns="http://www.w3.org/2000/svg">
<path d="M12.0001 0C12.2729 0 12.5345 0.108368 12.7274 0.301264C12.9203 0.494159 13.0287 0.755782 13.0287 1.02858C13.0287 1.30137 12.9203 1.563 12.7274 1.75589C12.5345 1.94879 12.2729 2.05716 12.0001 2.05716C9.36306 2.05716 6.83403 3.10471 4.96937 4.96937C3.10471 6.83403 2.05716 9.36305 2.05716 12.0001C2.05716 14.6371 3.10471 17.1661 4.96937 19.0308C6.83403 20.8955 9.36306 21.943 12.0001 21.943C12.2729 21.943 12.5345 22.0514 12.7274 22.2443C12.9203 22.4372 13.0287 22.6988 13.0287 22.9716C13.0287 23.2444 12.9203 23.506 12.7274 23.6989C12.5345 23.8918 12.2729 24.0002 12.0001 24.0002C8.81746 24.0002 5.76519 22.7359 3.51474 20.4854C1.26429 18.235 0 15.1827 0 12.0001C0 8.81746 1.26429 5.76519 3.51474 3.51474C5.76519 1.26429 8.81746 0 12.0001 0Z" fill="#FCFCFC"/>
<path d="M18.1304 8.61266C17.9487 8.41767 17.8498 8.15978 17.8545 7.89331C17.8592 7.62684 17.9672 7.37259 18.1556 7.18414C18.3441 6.99568 18.5983 6.88774 18.8648 6.88303C19.1313 6.87833 19.3892 6.97725 19.5841 7.15893L23.6985 11.2732C23.8911 11.4661 23.9993 11.7275 23.9993 12.0001C23.9993 12.2727 23.8911 12.5341 23.6985 12.727L19.5841 16.8413C19.49 16.9423 19.3764 17.0234 19.2503 17.0796C19.1241 17.1358 18.9879 17.1661 18.8498 17.1685C18.7117 17.1709 18.5745 17.1455 18.4464 17.0938C18.3183 17.0421 18.202 16.9651 18.1043 16.8674C18.0066 16.7697 17.9296 16.6534 17.8779 16.5253C17.8262 16.3972 17.8008 16.26 17.8032 16.1219C17.8056 15.9838 17.8359 15.8476 17.8921 15.7215C17.9483 15.5953 18.0294 15.4817 18.1304 15.3876L20.4893 13.0287H9.25722C8.98442 13.0287 8.7228 12.9203 8.5299 12.7274C8.33701 12.5345 8.22864 12.2729 8.22864 12.0001C8.22864 11.7273 8.33701 11.4657 8.5299 11.2728C8.7228 11.0799 8.98442 10.9715 9.25722 10.9715H20.4893L18.1304 8.61266Z" fill="#FCFCFC"/>
</svg>
