<svg width="52" height="33" viewBox="0 0 52 33" fill="none" xmlns="http://www.w3.org/2000/svg">
<path d="M18.97 4.29089H33.03V29.5544H18.97V4.29089Z" fill="#FF5F00"/>
<path d="M19.8627 16.9227C19.8627 11.7898 22.2729 7.23688 25.9775 4.29088C23.255 2.14844 19.8182 0.854065 16.0689 0.854065C7.18615 0.854065 0 8.04022 0 16.9227C0 25.805 7.18615 32.9914 16.0687 32.9914C19.818 32.9914 23.2548 31.697 25.9775 29.5543C22.2729 26.6531 19.8627 22.0557 19.8627 16.9227Z" fill="#EB001B"/>
<path d="M51.9998 16.9227C51.9998 25.805 44.8136 32.9914 35.9311 32.9914C32.1818 32.9914 28.745 31.697 26.0222 29.5543C29.7715 26.6086 32.1372 22.0557 32.1372 16.9227C32.1372 11.7898 29.7268 7.23688 26.0222 4.29088C28.7448 2.14844 32.1818 0.854065 35.9311 0.854065C44.8136 0.854065 51.9998 8.08495 51.9998 16.9227Z" fill="#F79E1B"/>
</svg>
