<svg width="27" height="25" viewBox="0 0 27 25" fill="none" xmlns="http://www.w3.org/2000/svg">
<path d="M0 1.91875C0 0.858988 0.85911 -0.00012207 1.91888 -0.00012207H13.4321C14.4919 -0.00012207 15.351 0.858988 15.351 1.91875V13.432C15.351 14.4918 14.4919 15.3509 13.4321 15.3509H1.91888C0.85911 15.3509 0 14.4918 0 13.432V1.91875Z" fill="#49536A"/>
<path opacity="0.7" fill-rule="evenodd" clip-rule="evenodd" d="M7.89847 2.99988C7.89847 2.72374 7.67461 2.49988 7.39847 2.49988C7.12232 2.49988 6.89847 2.72374 6.89847 2.99988V5.13879H3.09769C2.82154 5.13879 2.59769 5.36265 2.59769 5.63879C2.59769 5.91494 2.82154 6.13879 3.09769 6.13879H5.04409C5.09205 7.71147 5.68542 9.14692 6.64145 10.2624C5.65742 11.0907 4.38705 11.5898 3.00012 11.5898C2.72398 11.5898 2.50012 11.8136 2.50012 12.0898C2.50012 12.3659 2.72398 12.5898 3.00012 12.5898C4.66257 12.5898 6.1827 11.9805 7.34937 10.973C8.51603 11.9805 10.0362 12.5898 11.6986 12.5898C11.9748 12.5898 12.1986 12.3659 12.1986 12.0898C12.1986 11.8136 11.9748 11.5898 11.6986 11.5898C10.3117 11.5898 9.04131 11.0907 8.05728 10.2624C9.01331 9.14692 9.60669 7.71147 9.65464 6.13879H11.6989C11.975 6.13879 12.1989 5.91494 12.1989 5.63879C12.1989 5.36265 11.975 5.13879 11.6989 5.13879H7.89847V2.99988ZM7.38924 6.13879C7.39231 6.13885 7.39538 6.13888 7.39847 6.13888C7.40155 6.13888 7.40462 6.13885 7.40769 6.13879H8.65408C8.60755 7.43456 8.12527 8.61927 7.34937 9.5508C6.57346 8.61927 6.09118 7.43456 6.04465 6.13879H7.38924Z" fill="#FCFCFC"/>
<path d="M11.0336 11.5405C11.0336 10.4807 11.8927 9.62158 12.9524 9.62158H24.4657C25.5255 9.62158 26.3846 10.4807 26.3846 11.5405V23.0537C26.3846 24.1135 25.5255 24.9726 24.4657 24.9726H12.9524C11.8927 24.9726 11.0336 24.1135 11.0336 23.0537V11.5405Z" fill="#0DA7E0"/>
<path d="M20.601 19.6534H17.101L16.4562 21.4379H15.351L18.2523 13.4592H19.4612L22.351 21.4379H21.2457L20.601 19.6534ZM20.3017 18.8014L18.851 14.7487L17.4003 18.8014H20.3017Z" fill="#FDFDFD"/>
<path fill-rule="evenodd" clip-rule="evenodd" d="M5.75663 12.9796L7.83387 16.5775H6.23629V18.7362C6.23629 19.5311 6.88063 20.1754 7.67545 20.1754H10.314V18.5779L13.9118 20.6551L10.314 22.7324V21.1348H7.67545C6.35074 21.1348 5.27686 20.061 5.27686 18.7362V16.5775H3.67938L5.75663 12.9796Z" fill="#007FAE"/>
</svg>
