<svg width="60" height="40" viewBox="0 0 60 40" fill="none" xmlns="http://www.w3.org/2000/svg">
<g clip-path="url(#clip0_1041_132)" filter="url(#filter0_d_1041_132)">
<path d="M53.2267 0H6.77333C5.24166 0 4 1.21672 4 2.71762V29.2824C4 30.7833 5.24166 32 6.77333 32H53.2267C54.7583 32 56 30.7833 56 29.2824V2.71762C56 1.21672 54.7583 0 53.2267 0Z" fill="#0E4595"/>
<path d="M23.2883 22.7076L25.6014 9.40747H29.3009L26.9863 22.7076H23.2883Z" fill="white"/>
<path d="M40.3519 9.69423C39.6189 9.42478 38.4705 9.13562 37.0362 9.13562C33.3807 9.13562 30.8056 10.9395 30.7837 13.5249C30.7631 15.436 32.622 16.5021 34.0253 17.1383C35.4653 17.7902 35.9495 18.206 35.9426 18.7881C35.9335 19.6796 34.7927 20.0869 33.7293 20.0869C32.2485 20.0869 31.4619 19.8853 30.2469 19.3887L29.7702 19.1773L29.251 22.1547C30.1151 22.526 31.7129 22.8477 33.372 22.8643C37.2608 22.8643 39.7854 21.0811 39.8141 18.3203C39.8281 16.8073 38.8424 15.6559 36.7081 14.7067C35.4149 14.0914 34.623 13.6808 34.6314 13.0578C34.6314 12.505 35.3017 11.9138 36.75 11.9138C37.9598 11.8954 38.8361 12.1539 39.5189 12.4234L39.8504 12.5769L40.3519 9.69423Z" fill="white"/>
<path d="M49.872 9.40747H47.0133C46.1278 9.40747 45.4651 9.64431 45.0761 10.5104L39.5818 22.6992H43.4666C43.4666 22.6992 44.1018 21.0603 44.2455 20.7005C44.67 20.7005 48.4439 20.7062 48.9835 20.7062C49.0941 21.1718 49.4336 22.6992 49.4336 22.6992H52.8664L49.872 9.40747ZM45.3365 17.9956C45.6424 17.2293 46.8104 14.2777 46.8104 14.2777C46.7886 14.3131 47.1141 13.5077 47.3009 13.0083L47.551 14.155C47.551 14.155 48.2594 17.3298 48.4074 17.9956H45.3365V17.9956Z" fill="white"/>
<path d="M7.18105 9.40735L7.13379 9.68415C8.5961 10.031 9.90221 10.533 11.0457 11.1575L14.3283 22.6864L18.2426 22.6819L24.0668 9.40735H20.148L16.526 18.4771L16.1401 16.634C16.1222 16.5777 16.1029 16.5213 16.0831 16.4648L14.8236 10.5302C14.5996 9.68803 13.9501 9.4367 13.1466 9.40735H7.18105Z" fill="white"/>
</g>
<defs>
<filter id="filter0_d_1041_132" x="0" y="0" width="60" height="40" filterUnits="userSpaceOnUse" color-interpolation-filters="sRGB">
<feFlood flood-opacity="0" result="BackgroundImageFix"/>
<feColorMatrix in="SourceAlpha" type="matrix" values="0 0 0 0 0 0 0 0 0 0 0 0 0 0 0 0 0 0 127 0" result="hardAlpha"/>
<feOffset dy="4"/>
<feGaussianBlur stdDeviation="2"/>
<feComposite in2="hardAlpha" operator="out"/>
<feColorMatrix type="matrix" values="0 0 0 0 0 0 0 0 0 0 0 0 0 0 0 0 0 0 0.25 0"/>
<feBlend mode="normal" in2="BackgroundImageFix" result="effect1_dropShadow_1041_132"/>
<feBlend mode="normal" in="SourceGraphic" in2="effect1_dropShadow_1041_132" result="shape"/>
</filter>
<clipPath id="clip0_1041_132">
<rect width="52" height="32" fill="white" transform="translate(4)"/>
</clipPath>
</defs>
</svg>
